<?xml version="1.0" encoding="UTF-8" standalone="no"?>
<!-- Created with Inkscape (http://www.inkscape.org/) -->

<svg
   xmlns:dc="http://purl.org/dc/elements/1.1/"
   xmlns:cc="http://creativecommons.org/ns#"
   xmlns:rdf="http://www.w3.org/1999/02/22-rdf-syntax-ns#"
   xmlns:svg="http://www.w3.org/2000/svg"
   xmlns="http://www.w3.org/2000/svg"
   xmlns:sodipodi="http://sodipodi.sourceforge.net/DTD/sodipodi-0.dtd"
   xmlns:inkscape="http://www.inkscape.org/namespaces/inkscape"
   width="210mm"
   height="297mm"
   viewBox="0 0 210 297"
   version="1.1"
   id="svg3848"
   inkscape:version="0.92.2 (5c3e80d, 2017-08-06)"
   sodipodi:docname="rstudio.svg">
  <defs
     id="defs3842">
    <clipPath
       clipPathUnits="userSpaceOnUse"
       id="clipPath4717">
      <circle
         r="1489.9999"
         cy="-2700"
         cx="4000.0002"
         id="circle4719"
         style="fill:#ff0000;fill-rule:evenodd;stroke-width:7.49999952"
         transform="scale(1,-1)" />
    </clipPath>
  </defs>
  <sodipodi:namedview
     id="base"
     pagecolor="#ffffff"
     bordercolor="#666666"
     borderopacity="1.0"
     inkscape:pageopacity="0.0"
     inkscape:pageshadow="2"
     inkscape:zoom="0.35"
     inkscape:cx="100"
     inkscape:cy="560"
     inkscape:document-units="mm"
     inkscape:current-layer="g3879"
     showgrid="false"
     inkscape:window-width="2560"
     inkscape:window-height="1377"
     inkscape:window-x="1912"
     inkscape:window-y="-8"
     inkscape:window-maximized="1" />
  <metadata
     id="metadata3845">
    <rdf:RDF>
      <cc:Work
         rdf:about="">
        <dc:format>image/svg+xml</dc:format>
        <dc:type
           rdf:resource="http://purl.org/dc/dcmitype/StillImage" />
        <dc:title></dc:title>
      </cc:Work>
    </rdf:RDF>
  </metadata>
  <g
     inkscape:label="Layer 1"
     inkscape:groupmode="layer"
     id="layer1">
    <g
       id="g3879"
       transform="matrix(0.03527778,0,0,-0.03527778,-36.033736,250.13096)"
       style="opacity:0.85;fill:#2ebaae;fill-opacity:0.98994978;stroke:none">
      <path
         id="path3875"
         d="M 2510,2700 V 1210 H 4000 5490 V 2700 4190 H 4000 2510 Z m 1185,706 c 61,0 180,4 266,9 171,9 225,1 314,-42 133,-65 200,-200 176,-353 -23,-142 -115,-244 -264,-294 -15,-5 8,-45 150,-256 l 168,-249 83,-1 h 82 v -65 -65 h -124 -124 l -201,305 -202,305 h -104 -105 v -240 -239 l 103,-3 102,-3 v -60 -60 h -265 -265 v 60 60 l 93,3 92,3 -2,532 -3,532 -90,10 -90,10 -3,59 -3,59 53,-9 c 29,-5 103,-9 163,-8 z"
         inkscape:connector-curvature="0"
         style="fill:#2ebaae;fill-opacity:0.98994978"
         clip-path="url(#clipPath4717)" />
      <path
         id="path3877"
         d="m 3870,3291 -55,-6 -3,-234 -2,-233 142,4 c 202,7 283,41 333,141 59,119 12,258 -105,310 -49,22 -203,31 -310,18 z"
         inkscape:connector-curvature="0"
         style="fill:#2ebaae;fill-opacity:0.98994978" />
    </g>
  </g>
</svg>
