<?xml version="1.0" encoding="UTF-8" standalone="no"?>
<svg
   xmlns:dc="http://purl.org/dc/elements/1.1/"
   xmlns:cc="http://creativecommons.org/ns#"
   xmlns:rdf="http://www.w3.org/1999/02/22-rdf-syntax-ns#"
   xmlns:svg="http://www.w3.org/2000/svg"
   xmlns="http://www.w3.org/2000/svg"
   xmlns:sodipodi="http://sodipodi.sourceforge.net/DTD/sodipodi-0.dtd"
   xmlns:inkscape="http://www.inkscape.org/namespaces/inkscape"
   version="1.0"
   width="512.000000pt"
   height="512.000000pt"
   viewBox="0 0 512.000000 512.000000"
   preserveAspectRatio="xMidYMid meet"
   id="svg96"
   sodipodi:docname="rstudio.svg"
   inkscape:version="0.92.2 (5c3e80d, 2017-08-06)">
  <defs
     id="defs100">
    <clipPath
       id="clipPath4717"
       clipPathUnits="userSpaceOnUse">
      <circle
         transform="scale(1,-1)"
         style="fill:#ff0000;fill-rule:evenodd;stroke-width:7.49999952"
         id="circle4719"
         cx="4000.0002"
         cy="-2700"
         r="1489.9999" />
    </clipPath>
  </defs>
  <sodipodi:namedview
     pagecolor="#ffffff"
     bordercolor="#666666"
     borderopacity="1"
     objecttolerance="10"
     gridtolerance="10"
     guidetolerance="10"
     inkscape:pageopacity="0"
     inkscape:pageshadow="2"
     inkscape:window-width="2560"
     inkscape:window-height="1377"
     id="namedview98"
     showgrid="false"
     inkscape:zoom="1.7695313"
     inkscape:cx="341.33333"
     inkscape:cy="341.33333"
     inkscape:window-x="1912"
     inkscape:window-y="-8"
     inkscape:window-maximized="1"
     inkscape:current-layer="svg96" />
  <metadata
     id="metadata56">
Created by potrace 1.13, written by Peter Selinger 2001-2015
<rdf:RDF>
  <cc:Work
     rdf:about="">
    <dc:format>image/svg+xml</dc:format>
    <dc:type
       rdf:resource="http://purl.org/dc/dcmitype/StillImage" />
    <dc:title></dc:title>
  </cc:Work>
</rdf:RDF>
</metadata>
  <g
     id="layer1"
     inkscape:label="Layer 1"
     transform="matrix(4.8625784,0,0,4.8625782,-255.58281,-496.90884)">
    <g
       style="opacity:0.85;fill:#2ebaae;fill-opacity:0.98994978;stroke:none"
       transform="matrix(0.03527778,0,0,-0.03527778,-36.033736,250.13096)"
       id="g3879">
      <path
         clip-path="url(#clipPath4717)"
         style="fill:#2ebaae;fill-opacity:0.98994978"
         inkscape:connector-curvature="0"
         d="M 2510,2700 V 1210 H 4000 5490 V 2700 4190 H 4000 2510 Z m 1185,706 c 61,0 180,4 266,9 171,9 225,1 314,-42 133,-65 200,-200 176,-353 -23,-142 -115,-244 -264,-294 -15,-5 8,-45 150,-256 l 168,-249 83,-1 h 82 v -65 -65 h -124 -124 l -201,305 -202,305 h -104 -105 v -240 -239 l 103,-3 102,-3 v -60 -60 h -265 -265 v 60 60 l 93,3 92,3 -2,532 -3,532 -90,10 -90,10 -3,59 -3,59 53,-9 c 29,-5 103,-9 163,-8 z"
         id="path3875" />
      <path
         style="fill:#2ebaae;fill-opacity:0.98994978"
         inkscape:connector-curvature="0"
         d="m 3870,3291 -55,-6 -3,-234 -2,-233 142,4 c 202,7 283,41 333,141 59,119 12,258 -105,310 -49,22 -203,31 -310,18 z"
         id="path3877" />
    </g>
  </g>
</svg>
